# xmcd
# 
# Track frame offsets:
#     150
#     17750
#     35928
#     56267
#     76359
#     95047
#     115264
#     134123
#     154498
#     173155
# 
# Disc length: 2501
# 
# Revision: 5
# Processed by: cddbd v1.5.2PL0 Copyright (c) Steve Scherf et al.
# Submitted via: fre:ac v1.0.31
# 
DISCID=8b09c30a
DTITLE=Barbra Streisand - What Matters Most
DYEAR=2011
DGENRE=Vocal
TTITLE0=The Windmills Of Your Mind
TTITLE1=Something New In My Life
TTITLE2=Solitary Moon
TTITLE3=Nice n Easy
TTITLE4=Alone In The World
TTITLE5=So Many Stars
TTITLE6=The Same Hello, The Same Goodbye
TTITLE7=That Face
TTITLE8=I'll Never Say Goodbye
TTITLE9=What Matters Most
EXTD=
EXTT0=
EXTT1=
EXTT2=
EXTT3=
EXTT4=
EXTT5=
EXTT6=
EXTT7=
EXTT8=
EXTT9=
PLAYORDER=
